<?xml version="1.0" encoding="UTF-8"?>
<svg width="32" height="32" viewBox="0 0 32 32" fill="none" xmlns="http://www.w3.org/2000/svg">
  <rect width="32" height="32" rx="8" fill="#4F46E5"/>
  <path d="M16 8C11.5817 8 8 11.5817 8 16C8 20.4183 11.5817 24 16 24C20.4183 24 24 20.4183 24 16C24 11.5817 20.4183 8 16 8Z" fill="white"/>
  <path d="M16 10C12.6863 10 10 12.6863 10 16C10 19.3137 12.6863 22 16 22C19.3137 22 22 19.3137 22 16C22 12.6863 19.3137 10 16 10Z" fill="#4F46E5"/>
  <path d="M16 12C14.3431 12 13 13.3431 13 15C13 16.6569 14.3431 18 16 18C17.6569 18 19 16.6569 19 15C19 13.3431 17.6569 12 16 12Z" fill="white"/>
  <path d="M16 14C15.4477 14 15 14.4477 15 15C15 15.5523 15.4477 16 16 16C16.5523 16 17 15.5523 17 15C17 14.4477 16.5523 14 16 14Z" fill="#4F46E5"/>
  <path d="M12 16C12 15.4477 12.4477 15 13 15C13.5523 15 14 15.4477 14 16C14 16.5523 13.5523 17 13 17C12.4477 17 12 16.5523 12 16Z" fill="#4F46E5"/>
  <path d="M18 16C18 15.4477 18.4477 15 19 15C19.5523 15 20 15.4477 20 16C20 16.5523 19.5523 17 19 17C18.4477 17 18 16.5523 18 16Z" fill="#4F46E5"/>
  <path d="M16 18C15.4477 18 15 18.4477 15 19C15 19.5523 15.4477 20 16 20C16.5523 20 17 19.5523 17 19C17 18.4477 16.5523 18 16 18Z" fill="#4F46E5"/>
  <path d="M16 12C15.4477 12 15 12.4477 15 13C15 13.5523 15.4477 14 16 14C16.5523 14 17 13.5523 17 13C17 12.4477 16.5523 12 16 12Z" fill="#4F46E5"/>
</svg> 